<svg width="399" height="94" viewBox="0 0 399 94" fill="none" xmlns="http://www.w3.org/2000/svg">
<path d="M46.0087 28.199C65.1929 14.496 94.215 14.3163 116.898 11.3101C145.94 7.4612 175.189 6.19903 204.453 6.19903C242.924 6.19903 284.995 2.30816 323.12 7.75459C345.131 10.8991 362.968 15.6852 371.009 38.199C373.358 44.7778 372.318 54.0607 372.009 60.8657C371.57 70.5166 338.373 67.898 330.453 68.6435C223.246 78.7335 115.833 92.199 8.00866 92.199C1.51365 92.199 2.00866 84.1502 2.00866 79.199C2.00866 71.1227 5.14779 66.3763 12.0087 61.4213C16.855 57.9212 26.7092 53.8666 32.4531 52.199C50.9166 46.8387 70.5762 43.832 89.342 39.3101C152.63 24.06 217.001 19.1909 281.12 8.19903C292.833 6.19104 303.805 6.86431 315.564 5.97681C328.697 4.98565 341.152 0.647751 354.453 2.42126C360.133 3.17858 409.868 24.6268 394.009 34.6435C382.123 42.15 374.279 46.7192 360.342 51.199C350.641 54.3171 341.821 56.5813 332.12 59.9768C311.504 67.1922 289.507 74.199 267.564 74.199C255.449 74.199 243.085 73.4156 231.009 74.3101C219.287 75.1784 208.158 79.7042 196.342 80.3101C150.178 82.6775 104.007 84.0173 58.0087 88.199" stroke="#74B7A0" stroke-width="3" stroke-linecap="round"/>
</svg>
